<svg xmlns="http://www.w3.org/2000/svg" width="20.625" height="19.7189998626709"><rect id="backgroundrect" width="100%" height="100%" x="0" y="0" fill="none" stroke="none"/>
  <metadata><?xpacket begin="﻿" id="W5M0MpCehiHzreSzNTczkc9d"?>
<x:xmpmeta xmlns:x="adobe:ns:meta/" x:xmptk="Adobe XMP Core 5.6-c138 79.159824, 2016/09/14-01:09:01        ">
   <rdf:RDF xmlns:rdf="http://www.w3.org/1999/02/22-rdf-syntax-ns#">
      <rdf:Description rdf:about=""/>
   </rdf:RDF>
</x:xmpmeta>
                                                                                                    
                                                                                                    
                                                                                                    
                                                                                                    
                                                                                                    
                                                                                                    
                                                                                                    
                                                                                                    
                                                                                                    
                                                                                                    
                                                                                                    
                                                                                                    
                                                                                                    
                                                                                                    
                                                                                                    
                                                                                                    
                                                                                                    
                                                                                                    
                                                                                                    
                                                                                                    
                           
<?xpacket end="w"?></metadata>
<defs>
    <style>
      .cls-1 {
        fill: #fff;
        fill-rule: evenodd;
      }
    </style>
  </defs>
  
<g class="currentLayer"><title>Layer 1</title><path id="Корзина" class="cls-1" d="M20.576000000000022,4.428999862670899 l-1.2,8.912 a2.033,2.033 0 0 1 -1.8820000000000001,1.6350000000000002 H6.610000000000014 a2.028,2.028 0 0 1 -1.879,-1.6350000000000002 l-1.469,-10.287 a3.668,3.668 0 0 1 -0.137,-1.055 H1 a1,1 0 0 1 0,-2 h4 a1,1 0 0 1 1,1 a0.99,0.99 0 0 1 -0.9,0.979 h13.965 C20.172000000000025,1.9789998626709 20.840000000000032,3.1099998626708967 20.576000000000022,4.428999862670899 zm-13.845,8.518 l-1.3130000000000002,-9 h13.206 s-0.031000000000000007,0.2 -0.031000000000000007,0.2 l-1.186,8.788 c-0.008000000000000002,0.011000000000000003 -0.009000000000000003,0.014000000000000002 0,0.014000000000000002 H6.7309999999999945 zm0.515,3.009 a1.874,1.874 0 1 1 -1.875,1.874 A1.874,1.874 0 0 1 7.245999999999981,15.9559998626709 zm9,0 a1.874,1.874 0 1 1 -1.875,1.874 A1.874,1.874 0 0 1 16.24599999999998,15.9559998626709 z"/><path fill="#ea9617" fill-opacity="1" stroke="#222222" stroke-opacity="1" stroke-width="2" stroke-dasharray="none" stroke-linejoin="round" stroke-linecap="butt" stroke-dashoffset="" fill-rule="nonzero" opacity="1" marker-start="" marker-mid="" marker-end="" id="svg_1" d="M11.288109581053973,7.420475542324727 " style="color: rgb(234, 150, 23);"/><path fill="#ea9617" fill-opacity="1" stroke="#222222" stroke-opacity="1" stroke-width="2" stroke-dasharray="none" stroke-linejoin="round" stroke-linecap="butt" stroke-dashoffset="" fill-rule="nonzero" opacity="1" marker-start="" marker-mid="" marker-end="" id="svg_3" d="M4.7027438295140485,3.7619390136914284 " style="color: rgb(234, 150, 23);"/><path fill="#ea9617" fill-opacity="1" stroke="none" stroke-opacity="1" stroke-width="2" stroke-dasharray="none" stroke-linejoin="round" stroke-linecap="butt" stroke-dashoffset="" fill-rule="nonzero" opacity="1" marker-start="" marker-mid="" marker-end="" id="svg_2" d="M 4.7027438295140485 3.6806382019440242 L 18.861788617886177 3.5772357723577235" style="color: rgb(234, 150, 23);"/><path fill="#ea9617" fill-opacity="1" stroke="none" stroke-opacity="1" stroke-width="2" stroke-dasharray="none" stroke-linejoin="round" stroke-linecap="butt" stroke-dashoffset="" fill-rule="nonzero" opacity="1" marker-start="" marker-mid="" marker-end="" id="svg_4" d="M 4.865345453008858 3.761939013691429 C 4.865345453008857 3.7619390136914284 19.09298750880501 3.7619390136914284 19.09298750880501 3.7619390136914284" style="color: rgb(234, 150, 23);"/><path fill="#ea9617" fill-opacity="1" stroke="none" stroke-opacity="1" stroke-width="2" stroke-dasharray="none" stroke-linejoin="round" stroke-linecap="butt" stroke-dashoffset="" fill-rule="nonzero" opacity="1" marker-start="" marker-mid="" marker-end="" id="svg_5" d="M 4.865345453008858 4.005841448933648 C 4.865345453008857 4.005841448933648 18.84908507356279 4.005841448933648 18.84908507356279 4.005841448933648 C 18.84908507356279 4.005841448933648 17.466971273856885 13.19283317639059 17.466971273856885 13.19283317639059 C 17.466971273856885 13.19283317639059 6.328760064462173 13.19283317639059 6.328760064462173 13.19283317639059" style="color: rgb(234, 150, 23);"/></g></svg>