<?xml version="1.0" standalone="no"?>
<!DOCTYPE svg PUBLIC "-//W3C//DTD SVG 20010904//EN"
 "http://www.w3.org/TR/2001/REC-SVG-20010904/DTD/svg10.dtd">
<svg version="1.0" xmlns="http://www.w3.org/2000/svg"
 width="553.000000pt" height="606.000000pt" viewBox="0 0 553.000000 606.000000"
 preserveAspectRatio="xMidYMid meet">
<metadata>
Created by potrace 1.15, written by Peter Selinger 2001-2017
</metadata>
<g transform="translate(0.000000,606.000000) scale(0.100000,-0.100000)"
fill="#000000" stroke="none">
<path d="M2683 6034 c-308 -33 -665 -137 -958 -279 -624 -302 -1119 -799
-1415 -1418 -271 -568 -359 -1194 -255 -1813 183 -1082 939 -1978 1973 -2338
166 -57 372 -109 553 -138 127 -20 178 -23 434 -23 225 1 317 5 410 18 264 40
475 95 709 188 163 65 398 183 457 230 115 91 102 266 -23 330 -66 34 -113 24
-253 -54 -603 -331 -1292 -421 -1951 -253 -647 164 -1233 597 -1581 1168 -534
875 -515 1982 49 2831 93 142 184 253 318 391 422 434 951 698 1556 776 152
20 187 32 227 79 94 112 35 280 -108 311 -16 3 -81 1 -142 -6z"/>
</g>
</svg>
